<?xml version="1.0" standalone="no"?>
<!DOCTYPE svg PUBLIC "-//W3C//DTD SVG 20010904//EN"
 "http://www.w3.org/TR/2001/REC-SVG-20010904/DTD/svg10.dtd">
<svg version="1.0" xmlns="http://www.w3.org/2000/svg"
 width="1280.000000pt" height="1280.000000pt" viewBox="0 0 1280.000000 1280.000000"
 preserveAspectRatio="xMidYMid meet">

<g transform="translate(0.000000,1280.000000) scale(0.100000,-0.100000)"
fill="#000000" stroke="none">
<path d="M1505 12004 c-164 -36 -322 -122 -448 -242 -117 -113 -188 -227 -243
-392 l-29 -85 -3 -578 c-3 -645 -2 -667 61 -821 119 -291 364 -491 679 -557
85 -17 139 -19 613 -19 468 0 529 2 610 19 375 77 661 364 730 733 14 76 16
162 13 645 l-4 558 -27 88 c-97 314 -307 526 -627 633 l-85 29 -585 2 c-492 2
-596 -1 -655 -13z m1155 -398 c190 -34 349 -177 404 -365 23 -80 24 -1056 1
-1146 -45 -172 -191 -313 -372 -360 -47 -12 -146 -15 -555 -15 -324 0 -515 4
-550 11 -147 31 -281 136 -348 273 -23 48 -44 108 -50 146 -14 89 -13 941 1
1033 15 102 67 205 139 277 71 71 196 136 285 149 104 15 959 12 1045 -3z"/>
<path d="M1794 11241 c-51 -13 -135 -63 -165 -101 -16 -19 -40 -55 -52 -80
-21 -44 -22 -54 -22 -390 0 -342 0 -345 24 -398 29 -65 113 -143 178 -167 40
-15 93 -19 324 -23 388 -6 454 7 551 109 78 82 81 100 86 439 4 308 -2 381
-38 450 -26 50 -97 115 -155 142 -49 22 -59 23 -375 25 -179 1 -339 -2 -356
-6z"/>
<path d="M3977 11999 c-20 -11 -49 -38 -65 -61 l-27 -42 -3 -443 c-2 -425 -2
-444 17 -482 83 -162 312 -138 361 38 5 20 10 82 10 139 l0 102 385 0 385 0 0
-194 0 -195 -243 -3 -243 -3 -65 -32 c-117 -58 -204 -177 -216 -297 l-6 -54
-132 -4 c-126 -3 -134 -4 -173 -32 -116 -80 -105 -263 20 -327 88 -45 350 -35
458 18 109 54 195 172 207 287 l6 56 202 0 c111 0 227 5 256 10 124 23 223
100 281 218 l33 67 0 290 0 290 -33 67 c-59 120 -172 203 -305 223 l-47 7 0
120 c0 122 -8 155 -49 202 -43 49 -149 71 -218 45 -46 -17 -92 -69 -108 -123
-9 -29 -15 -90 -15 -148 l0 -98 -190 0 -190 0 0 103 c0 56 -5 119 -11 140 -13
47 -63 106 -106 123 -47 20 -131 17 -176 -7z"/>
<path d="M5524 11994 c-61 -42 -92 -96 -93 -164 -1 -69 58 -155 122 -179 39
-15 111 -14 150 3 64 26 117 112 117 186 -1 60 -63 147 -123 169 -54 21 -130
14 -173 -15z"/>
<path d="M6310 12001 c-19 -10 -48 -35 -64 -55 -25 -30 -31 -48 -34 -100 -8
-122 69 -206 188 -206 119 0 196 84 188 206 -3 52 -9 70 -34 100 -42 52 -88
74 -154 74 -35 0 -68 -7 -90 -19z"/>
<path d="M7458 11991 c-71 -45 -88 -91 -88 -233 l0 -116 -122 -4 c-101 -3
-130 -8 -164 -25 -137 -73 -134 -272 7 -343 36 -19 60 -20 354 -20 l315 0 0
-195 0 -195 -29 0 c-50 0 -154 -39 -203 -75 -27 -19 -64 -56 -83 -83 -36 -49
-75 -153 -75 -203 l0 -29 -120 0 c-138 0 -170 -9 -217 -63 -53 -61 -65 -134
-34 -202 42 -93 128 -130 287 -123 l84 3 0 -115 c0 -128 14 -173 66 -222 101
-94 277 -43 314 90 6 22 10 160 10 333 l0 296 63 13 c165 32 285 153 317 320
5 29 10 142 10 251 l0 199 190 0 190 0 0 -297 c0 -188 4 -313 11 -338 15 -54
82 -120 138 -135 89 -24 185 22 222 106 19 41 20 65 17 402 l-3 357 -32 67
c-54 115 -157 194 -282 218 -31 6 -223 10 -447 10 l-394 0 0 103 c0 123 -11
166 -53 214 -62 71 -168 85 -249 34z"/>
<path d="M10065 12009 c-67 -11 -167 -45 -240 -82 -239 -119 -401 -312 -482
-574 l-27 -88 -4 -558 c-3 -483 -1 -569 13 -645 69 -368 355 -656 730 -733 81
-17 142 -19 608 -19 479 0 526 2 617 20 347 71 614 317 713 659 22 75 22 86
22 686 l0 610 -32 95 c-109 320 -374 558 -695 624 -65 14 -160 16 -625 15
-301 -1 -570 -5 -598 -10z m1202 -420 c186 -68 313 -219 342 -406 14 -92 15
-943 1 -1033 -6 -38 -27 -98 -50 -146 -67 -137 -201 -242 -348 -273 -35 -7
-226 -11 -550 -11 -547 0 -555 1 -675 61 -73 37 -170 132 -209 205 -57 105
-58 122 -58 684 0 403 3 526 14 566 49 183 227 345 411 373 33 5 283 8 555 8
l495 -2 72 -26z"/>
<path d="M10315 11236 c-95 -30 -162 -88 -204 -176 l-26 -55 0 -325 c0 -239 3
-337 13 -370 27 -94 118 -183 217 -213 28 -8 135 -12 355 -12 280 0 321 2 368
18 70 25 152 101 183 169 24 53 24 56 24 398 0 336 -1 346 -22 390 -37 74 -79
117 -151 152 l-67 33 -325 2 c-243 2 -335 -1 -365 -11z"/>
<path d="M5955 11628 c-48 -17 -94 -56 -115 -98 -19 -37 -20 -59 -20 -392 0
-349 1 -354 24 -411 48 -117 116 -186 224 -228 46 -18 84 -23 197 -27 162 -5
209 4 262 51 71 62 86 168 34 249 -45 71 -91 88 -234 88 l-117 0 0 298 c0 187
-4 312 -11 337 -15 52 -82 119 -134 134 -48 13 -70 13 -110 -1z"/>
<path d="M6725 11237 c-83 -33 -129 -96 -129 -182 -1 -161 191 -252 314 -148
78 65 93 185 34 260 -56 70 -145 99 -219 70z"/>
<path d="M5545 10456 c-40 -18 -90 -73 -104 -115 -7 -23 -11 -167 -11 -455 0
-388 2 -424 19 -461 59 -129 233 -154 324 -46 37 44 47 90 47 214 l0 107 194
0 194 0 4 -133 c3 -128 4 -135 32 -175 77 -111 245 -108 317 6 29 46 29 47 29
207 0 114 -4 176 -15 211 -33 113 -152 226 -267 255 -37 10 -119 14 -270 14
l-216 0 -4 125 c-3 141 -14 169 -81 223 -31 26 -48 32 -100 34 -38 2 -73 -2
-92 -11z"/>
<path d="M8255 10453 c-70 -37 -105 -94 -105 -174 0 -93 59 -169 147 -187 123
-27 233 62 233 188 0 109 -82 190 -189 190 -31 -1 -69 -8 -86 -17z"/>
<path d="M4017 9690 c-109 -34 -169 -169 -118 -268 83 -162 305 -143 361 31
24 74 -16 172 -86 213 -46 27 -115 38 -157 24z"/>
<path d="M4786 9686 c-44 -17 -91 -58 -114 -101 -20 -38 -29 -246 -13 -329 22
-120 92 -226 186 -281 76 -44 151 -57 310 -53 141 3 144 4 187 33 127 88 112
272 -27 336 -32 15 -65 19 -157 19 l-116 0 -4 134 c-3 133 -3 135 -34 173 -58
71 -141 97 -218 69z"/>
<path d="M7093 9676 c-86 -41 -128 -132 -104 -223 40 -148 235 -191 334 -74
132 158 -44 386 -230 297z"/>
<path d="M7886 9685 c-76 -27 -126 -98 -126 -178 0 -82 37 -139 114 -179 84
-43 202 -3 248 85 26 50 28 128 5 173 -32 63 -116 115 -182 114 -11 -1 -37 -7
-59 -15z"/>
<path d="M8678 9691 c-52 -17 -94 -50 -118 -93 -22 -38 -25 -58 -28 -164 l-4
-121 -61 -11 c-126 -24 -231 -104 -285 -220 -26 -56 -27 -62 -32 -302 l-5
-245 -131 -5 c-121 -5 -134 -7 -171 -32 -116 -76 -106 -265 17 -328 37 -19 58
-20 354 -20 l314 0 3 -129 c4 -125 5 -131 34 -173 46 -64 96 -90 171 -86 70 4
116 30 155 86 22 32 24 47 27 167 l4 132 54 6 c107 11 223 87 279 182 104 178
48 415 -123 523 -51 33 -138 62 -184 62 l-28 0 0 313 c0 305 -1 314 -22 357
-40 79 -142 126 -220 101z"/>
<path d="M5930 9288 c-67 -35 -103 -86 -108 -156 -3 -45 1 -68 16 -99 46 -90
143 -132 233 -101 82 28 133 99 133 183 -1 145 -147 237 -274 173z"/>
<path d="M901 8910 c-45 -19 -82 -52 -101 -90 -18 -36 -20 -60 -20 -285 0
-221 2 -249 19 -283 34 -67 93 -102 171 -102 53 0 113 24 141 56 46 53 49 71
49 325 0 227 -1 246 -21 287 -30 60 -85 95 -157 99 -32 1 -68 -2 -81 -7z"/>
<path d="M2055 8904 c-111 -57 -147 -184 -82 -283 44 -67 91 -85 234 -89 l122
-4 3 -437 3 -436 33 -67 c55 -112 153 -185 284 -212 l63 -13 6 -52 c10 -73 60
-170 115 -221 25 -23 75 -56 112 -73 l67 -32 923 -3 c625 -2 935 1 962 8 135
36 187 212 92 314 -59 63 -75 66 -414 66 l-308 0 0 580 0 580 104 0 c117 0
174 15 220 58 38 36 56 81 56 142 0 67 -29 123 -82 157 l-42 28 -1220 3
c-1092 2 -1224 0 -1251 -14z m1825 -954 l0 -580 -389 0 -388 0 -6 55 c-16 157
-148 293 -317 328 -34 6 -61 15 -61 20 1 4 1 90 1 191 l0 183 54 6 c68 7 160
53 215 109 53 52 102 152 109 219 l5 49 388 0 389 0 0 -580z"/>
<path d="M3235 8135 c-22 -8 -57 -32 -77 -53 -66 -71 -73 -165 -17 -241 114
-159 362 -69 347 126 -10 124 -139 210 -253 168z"/>
<path d="M6875 8906 c-145 -46 -247 -159 -275 -305 -5 -29 -10 -143 -10 -252
l0 -199 -292 0 c-304 0 -342 -4 -399 -43 -55 -37 -80 -91 -77 -163 4 -70 30
-116 86 -155 35 -24 36 -24 359 -27 l323 -3 0 -194 0 -195 -112 -1 c-148 -1
-190 -17 -242 -93 -20 -30 -26 -51 -26 -93 0 -68 18 -110 63 -150 48 -42 91
-53 215 -53 l102 0 0 -194 0 -193 -56 -6 c-115 -12 -234 -100 -291 -214 -25
-53 -28 -68 -28 -163 0 -93 3 -112 27 -162 55 -117 178 -211 296 -225 l52 -6
0 -193 0 -194 -117 0 c-142 0 -185 -16 -232 -87 -54 -81 -40 -187 32 -250 48
-42 91 -53 215 -53 l102 0 0 -102 c0 -126 11 -168 57 -219 60 -66 148 -81 233
-39 79 40 100 91 100 244 l0 114 62 11 c129 23 232 101 291 221 29 59 32 73
32 160 0 85 -3 102 -31 160 -56 119 -158 197 -288 221 l-66 12 0 194 0 193
120 0 c136 0 167 9 217 61 44 47 61 114 45 177 -15 53 -61 107 -109 128 -22 9
-73 14 -153 14 l-120 0 0 585 0 585 194 0 193 0 6 -51 c9 -72 57 -170 112
-224 25 -26 76 -61 113 -78 l67 -32 176 0 c175 0 176 0 217 28 54 35 86 96 85
162 0 60 -20 101 -67 143 -47 41 -91 52 -212 52 l-102 0 -10 60 c-29 162 -155
289 -317 319 -32 6 -148 11 -257 11 l-198 0 0 189 0 190 318 3 c311 3 318 3
358 26 137 79 131 279 -11 343 -36 17 -71 19 -385 18 -250 0 -356 -4 -385 -13z"/>
<path d="M10211 8909 c-44 -18 -82 -51 -103 -92 -19 -35 -23 -61 -25 -162 l-3
-120 -54 -7 c-114 -15 -230 -100 -289 -213 l-32 -60 -3 -355 c-2 -195 0 -370
3 -388 3 -18 22 -51 41 -72 92 -102 243 -88 311 28 26 43 28 56 30 167 l1 120
190 3 190 2 3 -128 c4 -120 6 -131 31 -169 86 -131 276 -119 339 22 15 31 19
65 19 158 l0 117 33 0 c47 0 138 33 191 69 82 57 148 165 161 267 l7 51 53 6
c168 17 298 151 330 340 l6 37 103 0 c116 0 174 15 220 58 38 36 56 81 56 142
0 67 -29 123 -82 157 l-42 28 -349 3 c-386 3 -416 0 -509 -60 -63 -40 -105
-89 -142 -168 l-31 -65 -3 -237 -4 -238 -193 0 -194 0 -3 323 -3 324 -29 41
c-47 69 -150 101 -225 71z"/>
<path d="M4791 8135 c-162 -51 -184 -268 -36 -352 38 -22 50 -23 283 -23 270
0 286 3 339 63 85 96 61 240 -50 299 -40 22 -54 23 -267 25 -170 2 -236 -1
-269 -12z"/>
<path d="M1272 7734 c-174 -87 -123 -347 71 -361 64 -5 127 24 171 80 78 99
23 262 -102 297 -57 15 -83 12 -140 -16z"/>
<path d="M5567 7750 c-109 -35 -166 -161 -118 -265 64 -139 248 -154 336 -27
40 58 43 146 6 205 -45 73 -146 112 -224 87z"/>
<path d="M9058 7751 c-167 -54 -182 -290 -23 -362 173 -79 344 116 244 278
-43 69 -146 108 -221 84z"/>
<path d="M11553 7750 c-129 -27 -244 -133 -284 -261 -16 -52 -19 -94 -19 -284
l0 -224 -437 -3 -438 -3 -65 -31 c-77 -37 -151 -108 -185 -179 -35 -71 -45
-154 -45 -365 l0 -186 -72 -17 c-136 -32 -245 -126 -288 -250 -17 -47 -20 -82
-20 -211 0 -165 6 -195 48 -240 93 -99 246 -81 312 37 20 34 24 59 28 164 l5
123 188 0 187 0 4 -122 c4 -143 18 -183 81 -229 99 -71 238 -35 288 76 15 31
19 65 19 158 l0 117 195 0 195 0 0 -120 c0 -135 13 -175 69 -223 93 -78 237
-51 293 56 22 41 23 52 26 358 l3 316 53 6 c113 11 234 100 292 214 l29 58 0
495 0 495 -32 66 c-61 122 -182 204 -318 213 -38 3 -89 1 -112 -4z"/>
<path d="M901 7357 c-44 -14 -98 -71 -112 -116 -7 -23 -9 -163 -7 -396 l3
-360 28 -58 c56 -113 178 -202 292 -214 l53 -6 11 -60 c23 -131 101 -235 219
-290 l67 -32 437 -3 437 -3 3 -328 3 -328 29 -37 c75 -99 196 -111 287 -29 51
46 69 107 69 235 l0 98 580 0 580 0 0 -580 0 -580 -579 0 -579 0 -4 118 c-5
135 -20 177 -81 226 -31 25 -49 31 -101 34 -90 6 -149 -26 -188 -102 -18 -35
-19 -55 -16 -210 3 -161 5 -174 30 -228 37 -80 108 -152 187 -191 l66 -32 633
-3 632 -3 0 -807 c0 -786 1 -810 20 -868 26 -74 76 -144 138 -189 49 -36 153
-75 203 -75 l29 0 0 -120 c0 -79 5 -132 14 -153 26 -64 112 -117 186 -117 68
1 163 78 175 144 4 18 5 105 3 192 -3 147 -5 163 -30 216 -53 113 -164 198
-288 220 l-60 10 2 192 3 191 320 5 c272 4 325 7 350 21 121 67 128 251 12
327 -37 25 -50 27 -171 32 l-131 5 0 580 0 580 191 3 190 2 12 -62 c25 -133
102 -235 220 -291 61 -29 76 -32 162 -32 86 0 101 3 162 32 120 57 195 155
219 287 l12 66 119 0 c99 0 125 3 158 20 111 57 140 203 57 297 -54 62 -62 63
-412 63 l-315 0 0 28 c0 46 -29 133 -62 184 -61 97 -166 164 -272 175 l-55 6
-3 246 c-3 246 -3 246 -31 302 -43 88 -98 143 -185 186 l-76 38 -1015 5 -1016
5 -6 51 c-13 108 -92 225 -186 277 -100 54 -132 57 -569 57 l-403 0 -3 243
c-3 239 -3 243 -30 299 -56 120 -180 212 -301 225 l-57 6 0 119 c0 133 -9 167
-59 213 -53 51 -125 66 -200 42z"/>
<path d="M1665 7351 c-105 -47 -145 -180 -83 -279 73 -118 254 -118 327 1 79
128 -14 297 -164 297 -22 0 -58 -9 -80 -19z"/>
<path d="M9430 7355 c-46 -21 -78 -51 -101 -97 -16 -30 -19 -59 -19 -157 l0
-119 -133 -4 c-129 -3 -135 -4 -171 -32 -119 -90 -110 -254 17 -327 37 -21 58
-24 165 -27 l122 -4 0 -116 c0 -138 17 -187 83 -230 35 -23 51 -27 113 -27 66
0 76 3 111 31 81 66 78 44 78 539 0 427 -1 441 -21 480 -44 85 -160 128 -244
90z"/>
<path d="M5303 6961 c-106 -39 -180 -108 -230 -218 -24 -52 -27 -72 -31 -203
-5 -169 4 -215 54 -270 83 -92 232 -78 305 28 22 32 24 48 27 163 l4 128 316
3 c352 3 349 3 410 72 82 93 53 239 -58 296 -37 19 -59 20 -392 20 -319 -1
-358 -3 -405 -19z"/>
<path d="M2818 6570 c-61 -32 -92 -82 -96 -155 -6 -89 26 -148 100 -186 35
-18 65 -19 472 -19 283 0 445 4 463 11 64 24 123 109 123 179 0 70 -59 155
-123 179 -19 7 -180 11 -465 11 -414 -1 -439 -2 -474 -20z"/>
<path d="M4375 6573 c-70 -37 -105 -94 -105 -173 0 -111 79 -190 190 -190 119
0 196 84 188 206 -3 52 -9 70 -34 100 -16 20 -45 45 -64 55 -43 23 -133 24
-175 2z"/>
<path d="M8040 6581 c-105 -34 -202 -119 -247 -216 l-28 -60 -3 -350 c-2 -192
0 -365 3 -383 8 -45 67 -107 121 -128 85 -32 179 1 229 80 27 45 29 56 33 172
l4 123 323 3 c362 3 343 -1 409 81 59 73 41 202 -35 260 -48 36 -99 47 -215
47 l-101 0 -6 54 c-11 113 -102 235 -215 291 -49 25 -71 29 -152 32 -52 1
-106 -1 -120 -6z"/>
<path d="M895 5801 c-51 -23 -102 -81 -110 -123 -3 -18 -5 -366 -3 -773 l3
-740 27 -57 c37 -79 108 -152 185 -190 232 -114 523 45 550 300 l6 52 118 0
c65 0 130 5 146 11 62 23 122 109 123 175 0 67 -38 136 -93 170 -26 15 -57 20
-162 24 l-130 5 -8 55 c-23 166 -169 310 -330 327 l-57 6 0 313 c0 197 -4 323
-11 341 -24 64 -109 123 -179 123 -19 0 -53 -9 -75 -19z"/>
<path d="M5734 5810 c-108 -22 -216 -110 -268 -220 -30 -63 -31 -70 -34 -227
-4 -152 -3 -166 18 -209 59 -121 215 -149 310 -54 47 47 60 95 60 224 l0 106
109 0 c153 0 212 24 253 103 51 98 14 212 -84 261 -49 24 -60 26 -187 25 -75
-1 -155 -5 -177 -9z"/>
<path d="M1665 5411 c-187 -85 -125 -366 80 -366 164 0 253 190 148 316 -34
40 -96 69 -148 69 -22 0 -58 -9 -80 -19z"/>
<path d="M8251 5409 c-28 -14 -54 -39 -72 -68 -28 -43 -29 -49 -29 -173 l0
-128 -315 0 c-348 0 -356 -1 -411 -61 -42 -47 -57 -90 -52 -149 6 -64 45 -123
101 -152 35 -18 63 -22 165 -26 l122 -4 0 -189 0 -189 -195 0 -195 0 0 109 c0
149 -20 201 -98 248 -44 27 -137 31 -181 9 -42 -22 -89 -81 -102 -128 -7 -27
-10 -97 -7 -188 4 -138 6 -149 35 -212 18 -38 52 -87 78 -113 54 -55 152 -103
224 -112 l51 -6 0 -193 0 -194 -194 0 -194 0 -4 134 c-3 133 -3 135 -34 173
-16 21 -50 48 -75 61 -88 46 -204 9 -251 -81 -19 -35 -23 -62 -26 -163 l-4
-121 -51 -7 c-117 -13 -241 -107 -295 -224 -27 -56 -27 -60 -30 -299 l-3 -242
-317 -3 -317 -3 -47 -27 c-108 -64 -129 -199 -45 -295 47 -54 79 -63 217 -63
l120 0 0 -315 c0 -294 1 -318 20 -354 24 -48 70 -87 118 -101 57 -15 83 -12
140 16 39 19 59 38 80 72 25 43 27 57 31 170 l3 122 188 0 187 0 13 -62 c33
-168 154 -289 318 -320 l62 -12 0 -305 c0 -277 2 -310 19 -346 35 -76 95 -115
177 -115 57 0 101 19 140 59 52 54 56 82 52 461 l-3 345 -32 67 c-57 120 -174
208 -299 224 l-54 6 0 389 0 388 248 3 c243 3 248 3 304 30 113 53 198 164
220 288 l10 60 193 0 194 0 3 -247 3 -248 29 -57 c58 -114 177 -201 294 -215
l51 -6 7 -46 c19 -131 102 -244 222 -303 61 -30 74 -33 162 -33 86 0 101 3
162 32 120 57 208 174 224 299 l6 54 577 0 577 0 12 -62 c25 -132 100 -231
220 -290 65 -32 69 -33 225 -36 130 -3 167 -1 203 13 115 44 158 191 85 292
-46 63 -86 77 -228 81 l-123 4 0 383 0 383 59 10 c91 16 162 55 224 122 92 99
101 131 105 412 l4 237 241 3 c238 3 243 3 299 30 76 35 148 104 189 181 l34
62 3 372 c3 331 1 376 -14 405 -37 73 -94 108 -177 108 -68 0 -137 -41 -167
-99 -19 -38 -20 -58 -20 -356 l0 -315 -194 0 -194 0 -4 238 -3 238 -38 76
c-43 88 -102 146 -187 187 -54 25 -60 26 -302 29 l-248 3 0 120 c0 139 -9 168
-68 221 -90 82 -237 54 -294 -55 -18 -35 -22 -63 -26 -164 l-4 -123 -384 0
-384 0 0 115 c0 158 -25 215 -115 256 -105 49 -234 -9 -265 -119 -5 -20 -10
-85 -10 -144 l0 -108 -194 0 -194 0 -4 133 c-3 122 -5 137 -27 169 -57 83
-163 111 -250 67z m669 -948 l0 -189 -60 -10 c-128 -23 -235 -106 -293 -230
l-32 -67 -3 -237 -4 -238 -384 0 -384 0 0 194 0 193 51 6 c100 12 218 88 275
178 24 39 49 110 59 170 5 35 7 36 56 42 160 19 307 166 326 327 l6 50 193 0
194 0 0 -189z m1940 -1 l0 -190 -580 0 -580 0 0 190 0 190 580 0 580 0 0 -190z
m-780 -1160 l0 -580 -580 0 -580 0 0 580 0 580 580 0 580 0 0 -580z"/>
<path d="M9425 3473 c-45 -23 -85 -64 -101 -102 -34 -81 -2 -183 74 -236 57
-40 136 -42 200 -5 96 54 128 184 67 272 -54 77 -165 111 -240 71z"/>
<path d="M2825 5024 c-44 -24 -65 -45 -86 -87 -40 -77 -22 -174 41 -230 56
-52 108 -60 355 -55 195 3 213 5 252 26 126 66 137 248 21 328 l-41 29 -256 2
c-219 2 -260 0 -286 -13z"/>
<path d="M5931 3858 c-25 -13 -58 -40 -75 -61 -57 -71 -45 -188 26 -254 123
-115 322 -27 322 142 0 142 -150 237 -273 173z"/>
<path d="M1510 3471 c-357 -76 -649 -368 -716 -718 -21 -110 -20 -1141 1
-1240 40 -191 128 -348 271 -484 104 -98 215 -162 374 -215 l85 -29 560 -3
c392 -2 582 0 633 8 352 56 647 324 744 675 22 77 22 99 26 636 3 517 2 563
-16 650 -76 373 -362 651 -742 723 -68 13 -170 16 -609 15 -466 0 -536 -2
-611 -18z m1189 -406 c169 -45 310 -179 361 -343 19 -60 20 -94 20 -586 0
-564 0 -568 -55 -676 -54 -107 -180 -211 -304 -252 -63 -21 -87 -22 -520 -26
-545 -5 -610 1 -726 57 -135 66 -225 169 -268 306 -22 68 -22 81 -22 595 0
524 0 525 23 590 32 87 72 149 141 212 66 62 136 102 212 122 79 21 1059 23
1138 1z"/>
<path d="M1814 2710 c-100 -21 -185 -84 -232 -175 l-27 -50 0 -350 c0 -342 1
-351 22 -395 37 -74 79 -117 151 -152 l67 -33 340 0 340 0 57 28 c72 35 141
110 165 180 16 46 18 88 18 372 0 283 -2 326 -18 372 -25 73 -85 136 -165 175
l-67 33 -305 2 c-168 1 -323 -2 -346 -7z"/>
<path d="M5155 3471 c-69 -31 -115 -104 -115 -182 0 -14 12 -49 26 -77 19 -39
38 -59 72 -80 l47 -27 245 0 c232 0 247 1 285 22 45 23 76 61 93 112 31 90
-13 192 -103 232 -35 16 -68 19 -275 19 -207 0 -240 -3 -275 -19z"/>
<path d="M11405 2711 c-71 -18 -114 -52 -140 -114 -30 -73 -17 -148 38 -206
107 -113 287 -64 328 89 24 94 -37 196 -134 225 -28 8 -53 15 -56 14 -3 -1
-19 -4 -36 -8z"/>
<path d="M7886 2315 c-76 -27 -126 -98 -126 -179 0 -61 19 -104 63 -143 128
-112 322 -27 320 142 0 28 -7 64 -16 81 -32 63 -116 115 -182 114 -11 -1 -37
-7 -59 -15z"/>
<path d="M11766 2315 c-47 -17 -94 -59 -112 -102 -9 -22 -14 -73 -14 -153 l0
-120 -115 0 c-82 0 -127 -5 -153 -15 -136 -57 -164 -234 -52 -328 43 -37 89
-47 212 -47 l106 0 4 -133 c3 -129 4 -135 32 -171 56 -74 131 -99 214 -72 53
18 105 64 121 109 17 45 15 889 -3 930 -25 62 -113 118 -181 117 -11 -1 -37
-7 -59 -15z"/>
<path d="M9815 1921 c-147 -66 -155 -263 -14 -346 32 -19 52 -20 284 -20 232
0 252 1 284 20 107 63 135 204 58 292 -59 68 -83 73 -342 73 -201 0 -235 -3
-270 -19z"/>
<path d="M4935 1537 c-99 -33 -180 -98 -231 -183 -38 -64 -58 -175 -45 -249
23 -127 103 -235 216 -291 55 -26 69 -29 165 -29 99 0 110 2 172 33 295 145
285 569 -17 703 -62 27 -200 35 -260 16z"/>
<path d="M6311 1528 c-28 -14 -54 -37 -73 -67 l-29 -46 3 -261 3 -261 28 -36
c38 -50 94 -77 157 -77 53 0 113 24 141 56 46 53 49 71 49 332 l0 248 -29 46
c-52 83 -159 111 -250 66z"/>
<path d="M9183 1531 c-139 -51 -241 -177 -259 -318 l-6 -53 -510 0 c-491 0
-510 -1 -548 -20 -59 -30 -93 -88 -98 -164 -3 -54 0 -66 27 -108 18 -29 46
-55 71 -68 40 -20 49 -20 798 -18 l757 3 57 27 c115 54 198 167 221 302 9 52
8 75 -6 132 -46 183 -182 295 -367 301 -64 2 -98 -2 -137 -16z"/>
<path d="M10975 1533 c-80 -42 -122 -118 -111 -200 28 -203 307 -228 374 -34
42 122 -54 252 -185 251 -26 -1 -61 -8 -78 -17z"/>
<path d="M3968 1131 c-158 -100 -88 -351 99 -351 68 0 110 18 150 63 29 33 53
90 53 127 0 65 -58 152 -117 176 -57 24 -133 18 -185 -15z"/>
<path d="M10195 1145 c-109 -55 -142 -204 -65 -297 54 -65 69 -68 341 -68 227
0 246 1 287 21 66 32 97 86 97 169 0 83 -31 137 -97 169 -41 20 -60 21 -289
21 -197 0 -250 -3 -274 -15z"/>
</g>
</svg>
