<?xml version="1.0" standalone="no"?>
<!DOCTYPE svg PUBLIC "-//W3C//DTD SVG 20010904//EN"
 "http://www.w3.org/TR/2001/REC-SVG-20010904/DTD/svg10.dtd">
<svg version="1.0" xmlns="http://www.w3.org/2000/svg"
 width="1280.000000pt" height="1280.000000pt" viewBox="0 0 1280.000000 1280.000000"
 preserveAspectRatio="xMidYMid meet">

<g transform="translate(0.000000,1280.000000) scale(0.100000,-0.100000)"
fill="#000000" stroke="none">
<path d="M1300 12173 c-315 -36 -569 -250 -652 -549 -20 -74 -22 -105 -26
-489 -2 -252 1 -439 7 -487 42 -315 261 -559 572 -639 42 -11 154 -14 519 -14
522 0 521 0 675 75 152 73 271 197 345 355 65 138 65 140 65 665 0 470 0 476
-23 550 -81 255 -273 441 -529 512 -74 20 -102 22 -498 24 -231 1 -436 0 -455
-3z m841 -333 c152 -29 281 -144 323 -289 22 -76 24 -847 2 -929 -19 -70 -54
-127 -113 -183 -60 -57 -110 -86 -182 -104 -77 -21 -831 -21 -906 -1 -152 40
-260 149 -300 301 -22 87 -22 813 1 900 39 150 155 264 309 301 63 16 787 19
866 4z"/>
<path d="M1405 11531 c-61 -28 -105 -70 -131 -126 -23 -49 -24 -58 -24 -320 0
-262 1 -271 24 -320 27 -59 88 -117 142 -136 29 -11 105 -14 304 -14 l265 0
58 29 c69 33 110 84 133 163 24 81 16 531 -9 588 -25 55 -73 103 -132 131 -49
23 -57 24 -320 24 -240 0 -274 -2 -310 -19z"/>
<path d="M3373 12170 c-94 -20 -172 -81 -220 -173 -27 -50 -28 -58 -28 -199 0
-132 2 -149 21 -174 53 -72 129 -92 203 -52 65 35 81 72 81 189 l0 97 103 4
c84 3 108 7 139 26 98 61 97 203 -2 265 -30 19 -52 22 -145 24 -60 1 -129 -2
-152 -7z"/>
<path d="M4150 12158 c-25 -13 -55 -38 -67 -57 -22 -32 -23 -43 -23 -236 0
-193 1 -204 23 -235 37 -55 72 -75 132 -75 60 0 95 20 133 76 23 33 23 38 20
241 -3 190 -5 209 -24 235 -22 31 -97 73 -129 73 -11 0 -41 -10 -65 -22z"/>
<path d="M4799 12171 c-46 -15 -78 -42 -99 -85 -18 -38 -20 -61 -20 -222 0
-153 3 -185 19 -220 38 -83 129 -114 211 -72 79 41 85 61 85 294 0 196 0 201
-25 236 -40 59 -111 87 -171 69z"/>
<path d="M5710 12158 c-57 -30 -82 -65 -87 -125 -7 -82 48 -153 133 -169 45
-8 121 29 151 75 31 46 31 116 0 162 -23 35 -96 79 -132 79 -11 0 -41 -10 -65
-22z"/>
<path d="M7285 12165 c-134 -47 -139 -229 -8 -287 104 -46 213 29 213 145 0
57 -32 105 -90 135 -51 25 -61 26 -115 7z"/>
<path d="M8847 12166 c-50 -18 -67 -34 -88 -81 -16 -35 -19 -70 -19 -287 l0
-248 -340 0 c-315 0 -343 -1 -393 -20 -101 -38 -181 -135 -195 -238 l-7 -47
-105 -5 c-115 -6 -137 -14 -174 -63 -51 -67 -43 -147 20 -208 l35 -34 270 -3
269 -3 0 -103 c0 -90 3 -107 23 -136 67 -100 206 -97 264 6 19 33 23 54 23
137 l0 97 30 0 c51 0 137 39 183 83 50 49 88 121 94 181 l5 42 60 11 c110 21
211 112 239 215 6 23 9 152 7 333 l-3 294 -33 34 c-18 19 -50 39 -71 46 -46
13 -47 13 -94 -3z"/>
<path d="M10635 12169 c-196 -30 -376 -134 -491 -284 -57 -75 -95 -149 -126
-245 -23 -74 -23 -80 -23 -550 0 -525 0 -527 65 -665 74 -160 192 -281 345
-355 151 -73 150 -73 633 -78 462 -4 522 0 644 43 192 67 366 236 440 425 52
132 53 144 53 620 0 511 -3 536 -83 692 -95 186 -263 320 -477 381 -64 18
-106 20 -495 23 -234 1 -452 -2 -485 -7z m930 -343 c114 -40 212 -134 258
-246 21 -53 22 -67 25 -463 2 -274 -1 -427 -8 -463 -33 -157 -148 -279 -305
-320 -77 -21 -829 -20 -909 1 -77 20 -133 54 -194 118 -109 116 -112 132 -112
633 0 444 2 468 56 560 52 89 171 172 274 193 25 5 230 8 455 7 367 -1 415 -3
460 -20z"/>
<path d="M10765 11526 c-59 -28 -107 -76 -132 -131 -25 -57 -33 -507 -9 -588
23 -79 64 -130 133 -163 l58 -29 265 0 c199 0 275 3 304 14 54 19 115 77 142
136 23 49 24 58 24 320 0 262 -1 271 -24 320 -26 56 -70 98 -131 126 -36 17
-70 19 -310 19 -263 0 -271 -1 -320 -24z"/>
<path d="M6010 11841 c-82 -44 -102 -164 -38 -236 96 -110 268 -41 268 107 0
114 -126 185 -230 129z"/>
<path d="M7584 11850 c-33 -13 -82 -77 -90 -115 -9 -49 19 -119 60 -150 48
-37 110 -42 166 -13 106 55 112 197 10 265 -34 24 -104 30 -146 13z"/>
<path d="M9442 11841 c-70 -45 -95 -147 -52 -217 23 -36 91 -74 133 -74 112 0
187 122 138 222 -29 59 -63 81 -131 86 -42 2 -62 -2 -88 -17z"/>
<path d="M3630 11528 c-102 -40 -170 -129 -195 -255 l-7 -33 -89 0 c-103 0
-143 -13 -182 -59 -53 -63 -45 -149 18 -211 l36 -35 296 -3 c344 -3 360 0 447
79 73 66 101 130 100 229 0 125 -59 221 -169 278 -71 36 -179 41 -255 10z"/>
<path d="M4447 11528 c-23 -14 -45 -38 -58 -65 -19 -40 -20 -56 -17 -330 3
-281 4 -289 27 -337 46 -93 136 -161 230 -175 l46 -6 5 -100 c6 -121 24 -159
90 -193 73 -38 159 -13 203 58 41 67 34 289 -13 380 -42 80 -141 149 -237 165
l-43 7 0 257 c0 251 -1 259 -22 291 -47 68 -139 89 -211 48z"/>
<path d="M5194 11529 c-73 -28 -128 -79 -164 -153 -27 -53 -32 -76 -32 -135 0
-156 114 -290 262 -308 l50 -6 0 -102 c0 -89 3 -106 23 -135 63 -94 194 -98
259 -8 20 29 23 47 26 141 l4 107 309 0 309 0 0 -157 0 -158 -99 -1 c-121 -1
-155 -17 -190 -87 -33 -67 -24 -124 28 -176 43 -43 71 -51 182 -51 l79 0 0
-87 c1 -150 51 -218 160 -218 109 0 159 68 160 217 l0 87 53 10 c224 47 327
298 199 483 -44 62 -119 111 -198 129 l-53 12 -11 52 c-24 117 -123 221 -231
244 -28 6 -125 11 -217 11 l-167 0 -12 61 c-14 74 -60 146 -120 189 -76 55
-105 60 -342 59 -189 0 -222 -2 -267 -20z"/>
<path d="M6632 11530 c-101 -62 -97 -216 8 -271 48 -26 109 -24 150 4 55 37
75 72 75 132 0 60 -20 95 -75 133 -43 29 -112 30 -158 2z"/>
<path d="M6970 11229 c-87 -36 -125 -138 -81 -219 57 -109 222 -107 275 3 34
72 12 150 -55 200 -31 23 -103 31 -139 16z"/>
<path d="M9140 10908 c-48 -25 -90 -88 -90 -137 0 -42 39 -109 78 -133 35 -22
46 -23 237 -23 232 0 252 6 293 85 42 82 11 173 -72 211 -35 16 -67 19 -221
19 -168 0 -184 -2 -225 -22z"/>
<path d="M8551 10609 c-101 -21 -155 -146 -98 -229 37 -55 71 -74 132 -74 185
0 214 264 33 303 -18 4 -48 4 -67 0z"/>
<path d="M7563 10590 c-17 -12 -41 -41 -53 -64 -20 -43 -20 -48 -18 -1018 l3
-975 29 -37 c70 -93 202 -85 261 15 15 25 20 55 22 129 l3 95 310 3 310 2 0
-309 0 -309 -42 -7 c-108 -18 -191 -80 -239 -180 -29 -60 -29 -61 -29 -251 l0
-191 -50 -6 c-127 -15 -240 -127 -258 -255 l-7 -45 -60 -14 c-106 -24 -186
-87 -228 -182 -16 -36 -22 -73 -25 -167 -5 -141 3 -176 53 -224 30 -29 43 -34
92 -38 48 -3 64 0 92 20 59 40 76 80 78 188 l2 95 40 7 c136 23 244 130 266
264 6 42 7 42 65 53 108 21 204 108 235 213 11 38 15 99 15 225 l0 173 145 0
c80 0 148 0 153 0 4 0 9 -46 12 -102 5 -76 11 -110 24 -131 59 -88 172 -98
246 -22 35 36 35 37 40 146 l5 110 155 0 155 0 5 -110 c5 -109 5 -110 39 -145
59 -61 127 -70 198 -26 50 30 67 72 73 183 l5 99 305 -1 304 0 16 -58 c21 -75
42 -115 85 -158 43 -43 98 -72 164 -86 l49 -10 4 -97 c4 -120 22 -156 91 -191
84 -42 169 -12 208 73 16 36 19 69 19 282 l0 241 99 5 c119 6 156 23 189 88
38 76 23 145 -43 196 -35 26 -46 29 -141 32 l-103 4 -3 258 c-3 244 -4 260
-24 287 -75 101 -207 97 -268 -7 -19 -32 -21 -54 -24 -287 l-3 -253 -155 0
-154 0 0 251 c0 278 -4 299 -64 342 -42 30 -138 31 -178 2 -49 -35 -68 -90
-68 -192 l0 -90 -41 -7 c-73 -12 -137 -46 -187 -100 -48 -53 -82 -128 -82
-178 l0 -28 -154 0 -155 0 -11 54 c-24 118 -123 222 -231 245 -28 6 -126 11
-219 11 l-170 0 0 185 c0 158 -3 192 -19 235 -40 106 -137 185 -241 197 l-50
6 0 560 c0 542 -1 562 -20 601 -28 57 -63 79 -130 84 -65 4 -108 -18 -140 -70
-19 -32 -20 -52 -20 -606 l0 -573 -155 3 -156 3 1 698 c0 477 -3 711 -11 741
-7 27 -24 57 -45 77 -30 29 -42 33 -97 36 -50 3 -68 0 -94 -17z"/>
<path d="M3214 10290 c-33 -13 -82 -77 -90 -115 -3 -20 -4 -87 -2 -148 3 -84
10 -123 25 -158 43 -96 140 -172 237 -185 l44 -6 4 -192 c4 -218 12 -247 90
-332 145 -158 404 -120 502 74 13 26 27 69 31 94 l7 47 202 3 c186 3 204 5
243 26 95 50 159 137 170 232 l6 50 157 0 157 0 5 -47 c9 -97 73 -184 170
-232 36 -19 77 -31 100 -31 l38 0 0 -100 c0 -114 10 -144 63 -184 49 -37 102
-42 156 -14 86 44 86 44 89 342 l3 264 44 4 c93 11 191 84 237 176 20 41 23
65 26 184 3 113 1 143 -14 173 -51 109 -211 114 -271 9 -19 -33 -23 -54 -23
-136 l0 -98 -154 0 -154 0 -4 104 c-2 87 -7 109 -24 133 -75 101 -207 97 -268
-7 -16 -27 -21 -55 -23 -130 l-3 -95 -155 -3 -155 -3 0 103 c0 85 -4 109 -20
136 -42 68 -137 93 -210 53 -57 -30 -80 -87 -80 -196 l0 -92 -45 -6 c-68 -10
-130 -44 -183 -101 -48 -53 -82 -128 -82 -178 l0 -28 -154 0 -154 0 -11 50
c-30 140 -131 239 -263 256 l-48 7 0 101 c0 114 -14 151 -72 186 -34 21 -105
26 -144 10z"/>
<path d="M3822 10281 c-102 -65 -96 -223 12 -272 72 -33 139 -19 189 40 53 63
45 149 -18 211 -30 29 -43 34 -92 37 -46 3 -65 0 -91 -16z"/>
<path d="M6939 10276 c-99 -67 -88 -216 19 -267 100 -49 209 15 219 128 10
125 -134 210 -238 139z"/>
<path d="M8834 10290 c-32 -13 -82 -76 -89 -112 -4 -18 -5 -115 -3 -215 3
-201 7 -212 78 -260 64 -44 162 -22 207 46 22 33 23 42 23 240 0 230 -5 250
-72 291 -34 21 -105 26 -144 10z"/>
<path d="M9442 10280 c-67 -41 -72 -61 -72 -290 0 -187 2 -208 20 -238 59 -97
192 -96 264 1 20 27 21 41 21 237 0 196 -1 210 -21 237 -53 72 -144 94 -212
53z"/>
<path d="M710 9658 c-26 -14 -53 -37 -65 -58 -19 -34 -20 -51 -20 -630 0 -548
1 -599 18 -647 23 -66 85 -136 151 -171 l51 -27 297 -3 c262 -3 302 -1 333 14
78 36 110 145 63 213 -52 76 -50 76 -339 79 l-259 3 0 154 0 155 309 0 309 0
4 -104 c3 -116 14 -140 78 -183 64 -44 166 -19 210 52 20 33 22 45 18 183 -3
141 -4 149 -32 200 -33 60 -76 101 -139 134 -41 22 -50 23 -399 26 l-358 3 0
247 c0 237 -1 250 -22 292 -25 48 -89 90 -138 90 -14 0 -46 -10 -70 -22z"/>
<path d="M1350 9669 c-117 -47 -134 -206 -30 -276 32 -22 42 -23 239 -23 188
0 209 2 239 20 52 32 74 75 70 140 -5 67 -27 102 -84 130 -36 18 -59 20 -225
19 -101 0 -195 -5 -209 -10z"/>
<path d="M2425 9671 c-80 -20 -169 -91 -207 -165 -29 -56 -45 -226 -30 -308
10 -53 18 -69 50 -99 54 -51 106 -59 170 -27 70 34 92 84 92 205 l0 93 258 0
c239 0 259 1 290 20 53 32 74 75 69 143 -3 47 -9 63 -33 88 -53 57 -67 59
-361 58 -147 -1 -281 -4 -298 -8z"/>
<path d="M6484 9671 c-116 -28 -208 -126 -235 -250 l-10 -50 -52 -11 c-132
-27 -232 -131 -252 -261 l-7 -46 -48 -6 c-95 -11 -184 -79 -231 -173 -23 -46
-24 -61 -27 -246 l-4 -198 -469 0 -469 0 0 30 c0 56 -39 139 -90 190 -51 51
-134 90 -190 90 l-30 0 0 98 c0 75 -4 105 -19 132 -57 108 -215 108 -272 0
-27 -49 -27 -262 -2 -334 36 -99 145 -188 247 -202 42 -6 44 -8 50 -47 12 -72
46 -135 102 -186 87 -80 96 -81 491 -81 l343 0 0 -104 c0 -90 3 -107 23 -136
46 -70 140 -93 210 -53 54 31 77 91 77 200 l0 93 154 0 154 0 6 -43 c15 -98
85 -195 171 -237 63 -30 142 -40 305 -39 l145 1 6 -43 c20 -134 128 -241 267
-264 l42 -7 0 -97 c0 -107 13 -141 73 -185 39 -29 125 -29 163 0 59 44 69 67
72 179 l4 104 41 6 c105 17 193 84 239 180 15 33 28 75 28 93 l0 32 70 0 c104
0 162 16 198 53 76 80 55 200 -44 248 -41 19 -57 21 -172 17 -137 -5 -166 -14
-240 -68 -56 -40 -99 -109 -114 -182 l-12 -58 -152 0 -152 0 -4 193 c-3 170
-6 197 -25 238 -30 66 -86 124 -151 156 l-57 28 -352 3 -353 3 0 154 0 153 43
7 c141 23 267 154 267 276 0 24 5 28 43 34 63 10 137 47 181 91 44 44 81 118
91 182 l7 42 97 0 c119 0 155 16 190 83 19 38 22 55 17 92 -9 57 -54 111 -104
125 -42 11 -231 12 -278 1z"/>
<path d="M10085 9666 c-85 -38 -117 -133 -75 -217 54 -104 207 -108 271 -7 31
50 23 137 -17 179 -52 56 -118 72 -179 45z"/>
<path d="M11025 9666 c-16 -7 -43 -28 -59 -45 -40 -42 -48 -129 -17 -179 44
-69 137 -93 211 -54 73 38 101 156 53 220 -46 61 -127 86 -188 58z"/>
<path d="M11780 9666 c-118 -32 -205 -130 -225 -253 l-7 -43 -87 0 c-147 0
-216 -51 -216 -160 0 -71 21 -104 86 -138 41 -22 53 -23 164 -19 78 3 137 11
167 22 96 34 182 141 197 244 l6 46 107 5 c87 4 112 9 134 26 49 36 68 70 68
122 0 65 -28 111 -84 140 -38 19 -59 22 -155 21 -60 0 -130 -6 -155 -13z"/>
<path d="M6960 9348 c-25 -13 -55 -38 -67 -57 -20 -30 -23 -47 -23 -137 l0
-104 -102 0 c-85 0 -109 -4 -136 -20 -68 -42 -93 -137 -53 -210 30 -57 87 -80
198 -80 l93 0 0 -96 c0 -80 4 -103 21 -134 59 -104 209 -104 268 1 21 37 22
45 19 398 -3 345 -4 361 -24 388 -22 31 -97 73 -129 73 -11 0 -41 -10 -65 -22z"/>
<path d="M10390 9348 c-33 -17 -51 -35 -67 -68 -21 -41 -23 -57 -23 -225 0
-154 3 -186 19 -221 51 -112 207 -123 272 -18 22 36 24 51 27 199 5 198 -5
259 -52 304 -30 29 -80 51 -116 51 -9 0 -36 -10 -60 -22z"/>
<path d="M2572 9030 c-53 -32 -74 -75 -69 -143 3 -49 8 -62 37 -92 61 -63 149
-70 212 -17 81 68 73 196 -15 251 -45 28 -120 28 -165 1z"/>
<path d="M4774 9040 c-33 -13 -82 -77 -90 -115 -9 -49 19 -119 60 -150 100
-77 249 -5 249 120 0 85 -69 156 -152 154 -25 0 -55 -4 -67 -9z"/>
<path d="M9752 9030 c-97 -59 -96 -192 1 -264 39 -28 126 -28 164 0 94 71 96
198 3 262 -43 29 -121 30 -168 2z"/>
<path d="M2892 8724 c-18 -10 -44 -36 -59 -61 -44 -75 -22 -157 57 -210 32
-22 40 -23 286 -23 l254 0 0 -154 0 -154 -42 -7 c-56 -9 -153 -61 -184 -98
-36 -42 -70 -115 -79 -164 l-7 -42 -251 -3 c-233 -3 -255 -5 -287 -24 -104
-61 -108 -193 -7 -268 28 -21 38 -21 603 -24 l574 -3 0 -28 c0 -120 130 -256
263 -276 42 -7 47 -10 47 -34 0 -58 34 -125 95 -186 87 -88 115 -95 376 -95
184 0 214 2 262 20 101 38 181 135 195 238 l7 47 105 6 c117 6 137 13 177 65
21 29 27 47 27 89 1 60 -18 95 -74 133 -32 21 -40 22 -291 22 l-259 0 0 104
c0 90 -3 107 -23 136 -46 70 -140 93 -210 53 -54 -31 -77 -91 -77 -200 l0 -93
-154 0 -154 0 -4 198 c-3 216 -9 241 -77 323 -35 42 -129 94 -188 104 l-41 6
-4 187 c-5 213 -15 253 -78 324 -21 24 -62 57 -91 73 l-54 30 -300 3 c-262 2
-304 0 -333 -14z"/>
<path d="M11440 8722 c-28 -10 -68 -40 -105 -77 -80 -79 -95 -124 -95 -289 0
-107 3 -126 23 -160 30 -54 78 -78 143 -73 106 7 144 64 144 211 l0 96 95 0
c76 0 104 4 134 20 109 55 109 214 1 271 -48 26 -272 26 -340 1z"/>
<path d="M2415 8419 c-51 -12 -127 -62 -158 -102 -37 -50 -50 -78 -62 -137
l-12 -55 -59 -16 c-112 -30 -178 -82 -223 -178 -26 -56 -26 -58 -29 -336 -3
-275 -3 -281 20 -324 44 -86 124 -112 208 -69 81 42 84 55 90 348 l5 254 41 7
c133 23 236 130 259 267 l7 42 97 0 c118 0 155 16 189 81 39 74 20 150 -52
203 -24 18 -43 21 -154 23 -70 1 -145 -3 -167 -8z"/>
<path d="M11795 8111 c-116 -29 -214 -128 -236 -242 l-11 -57 -97 -4 c-144 -5
-200 -46 -209 -150 -3 -44 0 -59 20 -87 44 -65 68 -75 182 -79 l104 -4 11 -59
c21 -107 109 -203 213 -234 78 -23 261 -20 315 5 46 21 77 62 88 117 8 46 -28
120 -74 150 -30 20 -47 23 -137 23 l-104 0 0 155 0 155 73 0 c101 1 156 15
195 53 77 75 57 199 -42 246 -35 18 -60 21 -152 20 -60 -1 -122 -4 -139 -8z"/>
<path d="M1047 7796 c-78 -29 -112 -81 -105 -163 4 -44 11 -60 39 -89 49 -50
80 -56 290 -52 l186 3 36 28 c52 39 70 79 65 139 -6 56 -30 94 -79 123 -30 18
-55 20 -214 23 -135 1 -189 -1 -218 -12z"/>
<path d="M5727 7796 c-96 -35 -107 -66 -107 -309 0 -185 1 -196 23 -227 31
-47 67 -71 115 -77 57 -8 121 25 150 76 21 36 22 52 22 238 0 191 -1 202 -23
233 -41 62 -115 89 -180 66z"/>
<path d="M704 7471 c-17 -10 -42 -34 -55 -53 -24 -33 -24 -33 -27 -368 -3
-373 0 -398 55 -452 32 -31 38 -33 103 -33 65 0 71 2 105 35 43 42 55 81 55
188 l0 82 155 0 155 0 0 -30 c0 -86 79 -202 171 -252 37 -19 59 -23 139 -23
79 0 102 4 137 23 63 33 106 74 139 134 26 48 29 62 29 148 0 78 -4 102 -22
135 -30 58 -91 117 -149 145 -49 25 -50 25 -400 28 l-352 3 -4 104 c-4 115
-14 139 -78 183 -42 28 -112 30 -156 3z"/>
<path d="M9134 7471 c-77 -47 -100 -122 -62 -198 33 -67 66 -88 137 -88 71 1
115 29 143 93 22 50 19 89 -12 140 -42 68 -139 94 -206 53z"/>
<path d="M9754 7471 c-102 -62 -96 -219 11 -271 37 -18 62 -20 225 -20 164 0
188 2 224 20 57 28 79 63 84 130 4 65 -18 108 -70 140 -30 18 -51 20 -238 20
-184 0 -208 -2 -236 -19z"/>
<path d="M2270 7162 c-104 -52 -109 -210 -8 -272 30 -18 51 -20 232 -20 185 0
201 1 237 22 51 29 84 93 76 150 -6 48 -30 84 -77 116 -31 21 -42 22 -229 22
-167 0 -201 -3 -231 -18z"/>
<path d="M3215 7166 c-37 -16 -70 -52 -84 -89 -6 -16 -11 -105 -11 -208 0
-198 5 -223 59 -273 42 -40 129 -48 179 -17 67 43 72 62 72 292 0 197 -1 207
-22 239 -43 62 -125 86 -193 56z"/>
<path d="M6010 7158 c-70 -48 -75 -64 -75 -221 0 -128 2 -147 24 -195 43 -95
163 -182 253 -182 l28 0 0 -160 0 -160 -502 0 -503 0 -60 -29 c-98 -47 -163
-134 -173 -232 l-5 -49 -254 0 c-244 0 -257 -1 -294 -22 -75 -42 -101 -151
-52 -217 43 -56 67 -66 178 -69 l103 -4 4 -103 c3 -86 7 -109 24 -132 75 -101
207 -97 268 7 16 26 21 57 24 132 l4 98 172 0 c125 0 186 4 224 15 104 31 191
127 214 236 l12 59 152 0 152 0 4 -192 c4 -218 14 -256 86 -332 44 -45 143
-96 190 -96 l32 0 0 -82 c0 -107 12 -146 55 -188 34 -33 40 -35 105 -35 65 0
71 2 105 35 43 42 55 81 55 186 l0 81 45 6 c129 18 238 128 260 265 l7 42 153
0 152 0 7 -41 c12 -74 46 -137 102 -188 79 -73 113 -81 331 -81 l183 0 0 -153
c0 -84 5 -180 11 -213 24 -135 129 -237 267 -259 37 -6 42 -10 42 -34 0 -89
87 -210 182 -252 73 -32 183 -33 253 -1 189 87 244 332 110 490 -21 24 -63 54
-102 74 l-66 32 -189 4 -188 4 0 307 0 307 59 12 c110 23 205 110 236 216 13
45 15 120 13 489 -3 422 -4 436 -24 463 -52 71 -124 91 -196 55 -71 -35 -82
-59 -86 -183 l-4 -108 -81 0 c-103 0 -148 -13 -186 -51 -60 -60 -60 -153 0
-215 41 -42 81 -54 187 -54 l82 0 0 -155 0 -155 -30 0 c-45 0 -132 -36 -176
-74 -49 -42 -94 -122 -103 -184 l-6 -47 -158 -3 -157 -3 0 30 c0 57 -39 139
-90 191 -51 51 -134 90 -190 90 l-30 0 0 253 c0 220 -2 256 -18 287 -20 40
-70 77 -118 86 -45 8 -121 -29 -151 -75 -22 -33 -23 -41 -23 -292 l0 -259
-155 0 -155 0 0 315 0 315 98 0 c120 0 156 16 191 83 29 58 23 121 -17 168
-46 56 -66 59 -342 59 l-250 0 0 104 c0 90 -3 107 -22 136 -47 69 -144 91
-208 48z"/>
<path d="M8509 7159 c-74 -43 -99 -136 -58 -209 35 -61 80 -80 192 -80 l94 0
7 -41 c23 -141 155 -269 278 -269 l28 0 0 -160 0 -160 -28 0 c-90 0 -210 -87
-253 -182 -31 -71 -32 -182 -2 -249 30 -66 86 -124 151 -156 48 -24 70 -28
137 -28 67 0 89 4 137 28 89 44 153 131 167 226 l6 46 100 5 c66 4 111 11 132
23 74 40 101 131 61 206 -35 65 -72 81 -189 81 l-97 0 -4 193 c-3 183 -4 195
-29 248 -46 97 -139 169 -241 184 l-45 7 -6 48 c-11 95 -79 184 -173 231 -44
21 -64 24 -189 27 -128 2 -143 1 -176 -19z"/>
<path d="M9450 7162 c-108 -59 -108 -220 0 -274 72 -37 152 -15 204 55 29 39
29 125 0 163 -51 69 -137 93 -204 56z"/>
<path d="M10395 7166 c-71 -33 -95 -86 -95 -212 l0 -81 -59 -12 c-110 -22
-205 -109 -236 -216 -13 -44 -15 -103 -13 -333 3 -265 4 -282 24 -308 37 -51
70 -68 128 -68 61 -1 95 18 134 74 19 29 22 46 22 131 l0 99 28 5 c100 20 137
38 192 94 91 90 95 110 95 446 0 310 -2 320 -66 366 -39 27 -112 35 -154 15z"/>
<path d="M11321 7161 c-18 -10 -44 -35 -57 -57 -21 -34 -24 -52 -24 -136 l0
-98 -92 0 c-148 0 -209 -42 -216 -150 -4 -65 18 -108 70 -140 27 -16 51 -20
136 -20 l102 0 0 -30 c0 -45 36 -132 74 -176 41 -48 114 -90 183 -104 l51 -11
11 -57 c22 -115 125 -218 240 -243 141 -30 286 45 350 180 l26 56 0 290 c0
273 -1 292 -20 325 -29 49 -97 83 -153 76 -98 -13 -141 -80 -142 -218 l0 -88
-155 0 -155 0 0 251 c0 237 -1 253 -21 289 -41 72 -135 100 -208 61z"/>
<path d="M3831 6848 c-140 -75 -89 -288 69 -288 62 0 110 28 138 81 73 136
-71 280 -207 207z"/>
<path d="M5080 6848 c-107 -55 -112 -197 -9 -266 28 -20 44 -23 92 -20 49 4
62 9 92 38 19 18 40 49 46 67 32 98 -51 203 -160 203 -9 0 -37 -10 -61 -22z"/>
<path d="M1045 6549 c-17 -4 -46 -24 -65 -44 -29 -30 -34 -43 -38 -92 -3 -48
0 -64 20 -92 37 -54 72 -75 126 -75 65 0 111 28 140 84 42 82 11 173 -72 211
-45 20 -65 22 -111 8z"/>
<path d="M2435 6550 c-130 -32 -226 -134 -243 -257 l-7 -48 -112 -5 c-111 -5
-112 -5 -147 -39 -61 -59 -70 -127 -26 -199 31 -51 87 -72 196 -72 l91 0 6
-50 c13 -108 103 -213 209 -245 38 -11 100 -15 230 -15 l178 0 0 -154 0 -154
-192 -4 c-178 -3 -197 -5 -246 -27 -67 -30 -145 -114 -166 -178 -19 -58 -29
-353 -15 -456 15 -115 74 -198 174 -247 46 -23 62 -25 197 -25 132 0 149 2
174 21 72 53 93 138 52 208 -36 60 -75 76 -191 76 l-98 0 3 158 3 157 185 0
c177 1 187 2 240 26 74 34 120 76 156 141 l29 53 3 203 3 202 95 0 c110 0 162
20 194 73 27 43 26 121 0 165 -36 58 -72 72 -187 72 l-103 0 0 103 c0 115 -14
151 -72 187 -44 26 -122 27 -165 0 -54 -32 -73 -84 -73 -195 l0 -95 -155 0
-155 0 0 154 0 154 98 4 c109 5 147 19 184 70 18 25 23 46 23 90 0 69 -22 103
-85 136 -38 19 -59 22 -150 21 -58 -1 -118 -4 -135 -9z"/>
<path d="M4175 6553 c-31 -8 -83 -51 -100 -83 -12 -23 -15 -71 -15 -228 0
-190 1 -201 23 -232 37 -55 72 -75 132 -75 58 0 91 18 129 69 20 26 21 41 21
241 0 243 -2 250 -85 293 -43 22 -65 25 -105 15z"/>
<path d="M4770 6538 c-33 -17 -51 -35 -67 -68 -28 -55 -29 -82 -2 -136 71
-147 293 -98 293 65 0 118 -119 193 -224 139z"/>
<path d="M1319 6217 c-68 -45 -90 -143 -46 -207 37 -55 72 -75 132 -75 153 0
213 198 86 282 -24 17 -49 23 -86 23 -37 0 -62 -6 -86 -23z"/>
<path d="M699 5907 c-19 -12 -44 -42 -57 -67 -22 -42 -23 -54 -19 -165 3 -78
11 -137 22 -167 20 -57 93 -137 155 -169 42 -22 56 -24 200 -24 177 0 193 6
231 83 36 72 16 144 -55 196 -23 17 -45 22 -131 24 l-103 4 -4 103 c-4 115
-14 139 -78 183 -45 30 -115 30 -161 -1z"/>
<path d="M1640 5908 c-18 -13 -43 -36 -54 -51 -20 -27 -21 -41 -24 -378 -3
-329 -2 -352 17 -394 25 -57 69 -85 136 -85 59 0 106 25 135 72 16 27 20 51
20 136 l0 102 104 0 c123 0 157 16 194 92 27 53 23 99 -12 150 -36 53 -78 68
-188 68 l-98 0 0 104 c0 90 -3 107 -22 136 -47 69 -144 91 -208 48z"/>
<path d="M3822 5910 c-18 -11 -41 -34 -52 -52 -19 -31 -20 -51 -20 -290 l0
-256 -42 -7 c-108 -17 -201 -87 -247 -184 -24 -52 -26 -67 -26 -191 0 -123 2
-138 23 -172 29 -47 99 -83 148 -75 48 8 101 43 121 80 12 21 19 66 23 132 l5
100 153 2 152 2 0 -159 0 -160 -102 0 c-85 0 -109 -4 -136 -20 -102 -63 -96
-222 12 -271 30 -14 65 -19 134 -19 l92 0 0 -185 c0 -158 3 -192 19 -235 40
-106 137 -185 241 -197 l50 -6 0 -94 c0 -108 20 -161 72 -193 52 -32 94 -34
146 -8 76 37 92 71 92 194 l0 104 104 0 c90 0 107 3 136 23 102 68 97 210 -10
265 -42 21 -55 22 -292 22 l-248 0 0 310 0 310 310 -2 310 -3 3 -95 c3 -116
21 -154 87 -187 76 -39 145 -24 196 43 29 37 29 39 29 178 0 131 -2 145 -26
196 -29 62 -86 123 -139 150 -56 29 -142 40 -307 40 l-153 0 0 33 c0 17 -13
59 -28 92 -46 96 -134 163 -238 180 -40 6 -42 8 -48 48 -20 133 -128 241 -263
263 l-41 6 -4 103 c-3 114 -14 139 -78 183 -43 29 -112 30 -158 2z"/>
<path d="M10691 5908 c-95 -64 -99 -194 -8 -262 24 -18 45 -22 138 -24 l109
-4 0 -308 0 -308 -50 -11 c-76 -16 -114 -35 -164 -81 -51 -47 -80 -101 -96
-177 l-12 -53 -309 0 -309 0 0 23 c0 48 -32 127 -70 176 -28 35 -58 59 -107
83 l-68 33 -215 0 c-256 0 -293 -9 -376 -87 -88 -83 -98 -117 -102 -355 -3
-167 -1 -212 13 -259 31 -107 104 -186 205 -219 41 -14 101 -15 426 -13 378 3
379 3 428 27 95 47 176 163 176 251 l0 30 155 0 155 0 0 -243 c0 -232 1 -245
23 -287 33 -67 78 -93 150 -88 49 4 62 9 92 38 19 19 40 50 45 70 5 19 10 142
10 272 l0 236 193 4 c175 3 196 5 242 26 94 43 168 140 182 237 l6 45 81 0
c105 0 144 12 186 55 29 30 34 43 38 92 3 48 0 64 -20 92 -39 58 -79 75 -190
79 -95 4 -98 5 -98 28 0 41 -39 129 -76 172 -46 54 -106 89 -177 103 l-56 11
-3 192 c-3 174 -5 195 -26 241 -29 63 -83 119 -147 153 -46 25 -61 27 -195 30
-138 3 -147 3 -179 -20z m-1011 -1383 l0 -155 -155 0 -155 0 0 155 0 155 155
0 155 0 0 -155z"/>
<path d="M9453 5601 c-107 -50 -114 -208 -11 -271 30 -18 51 -20 233 -20 228
0 252 6 293 76 41 70 20 155 -52 208 -25 19 -43 21 -224 24 -178 2 -201 0
-239 -17z"/>
<path d="M11645 5606 c-103 -45 -123 -175 -40 -256 30 -29 43 -34 92 -37 46
-3 65 0 91 16 102 65 96 223 -12 272 -48 22 -89 23 -131 5z"/>
<path d="M5715 5296 c-65 -29 -105 -107 -91 -177 26 -134 206 -165 283 -49 45
66 24 159 -48 213 -34 25 -105 31 -144 13z"/>
<path d="M6970 5299 c-119 -50 -135 -213 -28 -279 47 -28 125 -27 169 3 119
79 70 271 -72 283 -24 2 -55 -1 -69 -7z"/>
<path d="M8852 5303 c-12 -3 -40 -21 -61 -41 -51 -49 -62 -108 -33 -174 49
-112 207 -120 273 -16 31 50 23 137 -17 179 -46 50 -93 65 -162 52z"/>
<path d="M10096 5300 c-59 -18 -106 -85 -106 -152 0 -18 10 -51 23 -72 57
-102 198 -105 265 -5 20 28 23 44 20 92 -4 46 -10 63 -34 88 -49 53 -103 68
-168 49z"/>
<path d="M1194 4989 c-103 -19 -181 -79 -226 -174 -33 -71 -38 -162 -12 -238
21 -61 93 -141 158 -175 49 -26 57 -27 248 -30 l196 -4 4 -103 c3 -114 14
-139 78 -182 64 -44 161 -22 208 48 23 33 23 41 20 184 -3 144 -4 152 -32 203
-50 89 -133 148 -227 159 -46 5 -49 8 -49 34 0 45 -37 132 -75 177 -65 75
-194 120 -291 101z"/>
<path d="M6035 4985 c-142 -50 -132 -252 13 -296 56 -16 106 -1 152 46 33 34
35 40 35 105 0 59 -3 72 -25 95 -50 54 -114 72 -175 50z"/>
<path d="M3215 4670 c-28 -11 -72 -60 -84 -93 -6 -16 -11 -69 -11 -118 l0 -89
-96 0 c-113 0 -158 -19 -193 -80 -41 -74 -15 -167 59 -209 31 -17 54 -21 133
-21 l95 0 7 -42 c23 -141 154 -268 276 -268 l27 0 4 -103 c4 -116 21 -157 80
-191 43 -26 113 -26 156 0 59 34 76 76 80 190 2 55 -1 125 -7 156 -27 128
-125 227 -249 250 l-62 12 0 255 c0 238 -1 258 -20 289 -28 46 -76 72 -130 71
-25 0 -54 -4 -65 -9z"/>
<path d="M5689 4656 c-68 -47 -90 -143 -46 -206 37 -55 72 -75 132 -75 153 0
212 196 85 283 -47 31 -123 31 -171 -2z"/>
<path d="M7260 4662 c-22 -11 -44 -35 -58 -63 -21 -41 -23 -54 -20 -174 3
-109 7 -138 26 -180 43 -94 140 -168 237 -182 l45 -6 0 -89 c0 -100 12 -139
59 -182 25 -24 42 -30 88 -34 48 -3 64 0 92 20 58 39 75 79 79 190 l4 98 89 0
c107 0 146 14 185 65 23 30 28 48 28 91 0 60 -19 94 -74 132 -32 21 -40 22
-291 22 l-259 0 0 103 c0 84 -4 108 -20 135 -42 68 -136 93 -210 54z"/>
<path d="M11940 4658 c-64 -44 -74 -68 -78 -183 -4 -102 -5 -105 -28 -105 -44
0 -137 -43 -180 -82 -24 -22 -56 -66 -71 -97 -25 -51 -28 -68 -31 -186 -3
-121 -2 -133 20 -174 56 -105 206 -110 268 -9 16 27 20 51 20 134 l0 101 48 7
c107 14 192 80 241 186 21 47 26 72 29 175 3 110 1 124 -20 165 -45 87 -144
118 -218 68z"/>
<path d="M6010 4348 c-55 -38 -75 -73 -75 -133 0 -153 198 -213 282 -86 32 47
32 125 1 171 -47 69 -144 91 -208 48z"/>
<path d="M1021 4038 c-105 -56 -110 -206 -9 -268 27 -16 51 -20 136 -20 l102
0 0 -30 c0 -46 37 -133 75 -178 21 -24 63 -54 101 -73 59 -29 77 -33 175 -37
134 -6 187 7 229 55 55 62 55 152 -1 209 -41 42 -81 54 -186 54 -81 0 -83 0
-83 25 0 45 -42 138 -82 181 -22 24 -65 56 -96 71 -51 25 -69 28 -187 31 -121
3 -133 2 -174 -20z"/>
<path d="M2595 4046 c-16 -7 -43 -28 -59 -45 -40 -42 -48 -129 -17 -179 86
-136 301 -68 288 91 -9 106 -121 176 -212 133z"/>
<path d="M6355 4053 c-38 -10 -78 -46 -97 -90 -27 -62 -17 -114 31 -166 32
-34 45 -40 89 -45 63 -6 102 9 141 53 98 112 -16 285 -164 248z"/>
<path d="M8345 4046 c-67 -21 -100 -43 -148 -96 -69 -76 -77 -112 -77 -331 l0
-186 -48 -5 c-105 -10 -214 -99 -248 -201 -43 -128 -1 -272 101 -349 91 -69
75 -68 797 -68 l648 0 0 -155 0 -155 -239 0 c-131 0 -253 -3 -271 -6 -51 -11
-107 -70 -115 -124 -9 -59 16 -122 59 -153 30 -21 42 -22 296 -27 l265 -5 7
-48 c19 -133 126 -237 271 -262 34 -5 37 -9 37 -38 0 -46 51 -146 96 -189 44
-42 110 -74 172 -84 l42 -7 0 -152 0 -152 -42 -7 c-106 -17 -191 -81 -239
-181 -28 -57 -29 -67 -29 -196 0 -125 2 -139 23 -169 63 -94 193 -97 261 -7
18 24 22 45 24 136 l4 108 49 6 c65 8 143 51 186 104 39 47 73 128 73 173 l0
30 185 0 c161 0 191 3 239 20 72 27 139 88 173 158 l28 57 5 350 5 350 106 5
c122 6 150 19 180 83 34 76 18 144 -46 193 -35 26 -46 29 -141 32 l-104 4 0
153 0 152 42 7 c131 21 234 119 259 248 l12 58 245 0 c226 0 249 2 286 20 57
28 79 63 84 130 4 65 -18 108 -70 140 -31 19 -51 20 -290 20 l-258 0 0 95 c0
107 -13 150 -55 183 -71 56 -153 51 -215 -13 -35 -36 -35 -36 -40 -148 l-5
-112 -155 0 -155 0 -6 45 c-4 25 -14 62 -22 82 -23 56 -100 133 -160 159 l-52
24 -594 3 c-586 3 -594 2 -637 -18 -80 -39 -112 -126 -74 -204 34 -71 74 -90
197 -94 l103 -4 0 -154 0 -154 -160 0 -160 0 0 38 c0 51 -51 152 -97 193 -20
17 -59 42 -87 55 -48 22 -62 24 -243 24 l-193 0 0 160 0 160 258 0 c239 0 259
1 290 20 45 28 72 76 72 130 0 62 -28 110 -80 137 -42 22 -51 23 -314 22 -189
0 -283 -4 -311 -13z m2265 -1391 l0 -465 -465 0 -465 0 0 465 0 465 465 0 465
0 0 -465z m0 -940 l0 -155 -155 0 -155 0 0 155 0 155 155 0 155 0 0 -155z"/>
<path d="M10085 2796 c-98 -43 -123 -175 -48 -251 97 -96 263 -30 263 104 0
116 -112 192 -215 147z"/>
<path d="M713 3729 c-55 -27 -87 -78 -87 -139 0 -166 222 -214 294 -64 38 78
6 165 -74 203 -53 26 -80 26 -133 0z"/>
<path d="M2273 3729 c-97 -48 -116 -167 -40 -247 79 -82 211 -54 252 53 30 78
-3 162 -78 195 -54 25 -82 25 -134 -1z"/>
<path d="M5237 3739 c-62 -15 -112 -45 -160 -99 -70 -78 -79 -114 -84 -330
l-3 -185 -263 -5 c-297 -6 -297 -6 -338 -88 -36 -72 -16 -144 55 -196 26 -20
43 -21 292 -24 l264 -3 0 -38 c0 -50 51 -151 96 -190 49 -44 108 -71 165 -78
l49 -6 0 -101 c0 -83 4 -107 20 -134 29 -47 76 -72 135 -72 108 0 154 65 155
218 l0 92 96 0 c110 0 151 14 187 64 30 42 31 138 2 178 -35 49 -90 68 -192
68 l-90 0 -7 41 c-12 73 -46 137 -100 187 -53 48 -128 82 -178 82 l-28 0 0
154 0 154 98 4 c109 5 147 19 184 70 18 25 23 46 23 90 0 69 -22 103 -85 136
-38 19 -59 22 -150 21 -58 -1 -122 -5 -143 -10z"/>
<path d="M6790 3737 c-62 -17 -112 -50 -159 -103 -61 -70 -73 -118 -69 -283
l3 -140 34 -35 c68 -70 155 -72 220 -7 43 43 51 71 51 182 l0 79 155 0 155 0
0 -155 0 -155 -96 0 c-110 0 -151 -14 -187 -64 -17 -24 -22 -45 -22 -91 0 -72
20 -105 83 -136 38 -19 56 -21 175 -17 113 3 139 7 179 27 61 29 120 89 150
149 22 45 23 56 23 292 l0 245 -27 51 c-32 60 -93 118 -156 147 -42 19 -67 21
-257 24 -147 2 -224 -1 -255 -10z"/>
<path d="M11953 3729 c-80 -39 -111 -126 -73 -203 72 -150 294 -102 294 64 0
62 -32 112 -88 139 -53 26 -80 26 -133 0z"/>
<path d="M1950 3412 c-38 -21 -80 -90 -80 -131 1 -44 37 -109 72 -131 50 -30
92 -35 143 -15 109 41 134 173 49 256 -29 28 -43 33 -91 36 -44 3 -67 -1 -93
-15z"/>
<path d="M2572 3410 c-53 -32 -74 -75 -69 -143 3 -47 9 -63 33 -88 52 -56 70
-59 338 -59 l245 0 3 -347 c3 -341 3 -349 27 -400 26 -59 102 -135 159 -161
29 -13 79 -18 237 -22 l200 -5 5 -265 c6 -301 6 -302 87 -341 73 -35 145 -16
197 55 17 22 21 46 24 131 l4 105 153 0 152 0 12 -58 c20 -100 85 -182 181
-226 33 -15 66 -20 125 -20 72 0 86 3 143 33 92 50 141 118 161 226 14 77 14
349 0 417 -22 105 -82 181 -179 227 -52 25 -64 26 -247 29 l-193 4 0 97 c0 85
-3 102 -22 131 -52 75 -125 98 -200 61 -68 -33 -88 -76 -88 -195 l0 -96 -315
0 -315 0 0 348 c0 345 0 347 -24 398 -32 68 -83 124 -143 154 -48 25 -51 25
-353 28 -291 2 -307 1 -338 -18z"/>
<path d="M3922 3400 c-70 -35 -114 -82 -148 -154 -21 -46 -24 -65 -24 -190 0
-124 2 -142 21 -173 44 -70 153 -94 217 -46 57 43 67 67 70 178 l4 103 103 4
c85 3 109 7 131 24 95 71 97 198 4 262 -30 20 -44 22 -175 22 -138 0 -143 -1
-203 -30z"/>
<path d="M6324 3101 c-17 -10 -42 -34 -55 -53 -24 -32 -24 -38 -27 -289 l-3
-257 -103 -4 c-93 -3 -106 -6 -138 -30 -39 -30 -68 -82 -68 -124 0 -39 36
-109 68 -131 24 -16 57 -19 292 -23 l265 -5 6 -45 c10 -68 33 -114 84 -169 70
-75 123 -94 275 -99 115 -3 128 -2 169 20 65 34 86 67 86 138 0 109 -57 152
-206 158 l-97 4 -11 57 c-24 122 -132 225 -258 246 l-42 7 -3 257 -3 258 -28
36 c-15 21 -41 44 -57 52 -40 21 -109 19 -146 -4z"/>
<path d="M11940 3098 c-64 -44 -74 -68 -78 -183 l-4 -105 -246 0 c-225 0 -249
-2 -287 -20 -79 -38 -107 -136 -62 -214 41 -72 58 -76 344 -76 l253 0 0 -82
c0 -107 12 -146 55 -188 34 -33 40 -35 105 -35 65 0 71 2 105 35 19 19 40 50
45 70 6 19 10 178 10 360 0 318 -1 327 -22 370 -44 87 -144 118 -218 68z"/>
<path d="M1242 2799 c-263 -44 -485 -231 -576 -486 -42 -120 -48 -205 -43
-649 4 -446 7 -467 67 -600 85 -187 246 -333 441 -398 124 -42 229 -48 655
-43 441 5 456 7 614 84 82 39 108 59 190 142 79 79 104 111 138 181 76 156 76
152 80 644 2 279 -1 463 -7 507 -49 311 -285 555 -597 615 -59 11 -167 14
-492 13 -230 -1 -441 -5 -470 -10z m945 -337 c114 -36 202 -112 256 -222 l32
-65 3 -433 c3 -377 1 -441 -13 -489 -42 -143 -158 -253 -305 -287 -94 -23
-799 -23 -883 -1 -168 44 -287 166 -317 324 -14 75 -13 795 1 863 31 145 135
258 284 310 44 15 98 17 467 18 375 0 422 -2 475 -18z"/>
<path d="M1447 2179 c-21 -5 -50 -15 -66 -24 -42 -21 -106 -98 -119 -143 -8
-26 -12 -130 -12 -304 l0 -264 26 -52 c14 -29 42 -65 62 -82 67 -55 99 -60
386 -60 252 0 263 1 311 24 59 27 117 88 136 142 11 29 14 106 14 309 l0 270
-31 55 c-37 66 -101 113 -174 129 -61 13 -478 13 -533 0z"/>
<path d="M7590 2799 c-95 -39 -128 -163 -63 -239 35 -42 73 -60 126 -60 144 0
204 196 86 281 -36 25 -111 34 -149 18z"/>
<path d="M7286 2490 c-58 -18 -106 -85 -106 -150 0 -44 36 -108 73 -130 70
-43 174 -18 218 52 31 50 23 137 -17 179 -49 53 -103 68 -168 49z"/>
<path d="M8215 2486 c-16 -7 -43 -28 -60 -45 l-30 -32 -3 -270 -3 -269 -37 0
c-58 0 -152 -50 -200 -106 -62 -73 -77 -125 -77 -274 0 -107 3 -130 20 -159
30 -51 67 -74 127 -79 44 -3 59 0 87 20 65 44 75 68 79 183 l4 105 308 0 308
0 4 -104 c3 -116 14 -140 78 -184 64 -43 161 -21 208 49 23 33 23 40 20 184
-3 132 -6 155 -26 192 -33 63 -74 106 -134 139 l-53 29 -202 3 -202 3 -3 264
c-3 248 -4 265 -24 291 -11 15 -31 36 -45 46 -33 24 -106 32 -144 14z"/>
<path d="M5727 2176 c-84 -30 -107 -76 -107 -209 l0 -94 -49 -6 c-129 -15
-243 -128 -258 -257 -5 -43 -9 -50 -28 -50 -46 0 -126 -32 -174 -70 -136 -108
-151 -316 -33 -451 75 -85 218 -122 331 -84 64 21 150 98 182 162 22 44 24 63
27 246 l4 197 153 0 153 0 4 -104 c3 -116 14 -140 78 -184 64 -43 162 -21 207
47 21 31 23 45 23 176 0 138 -1 143 -30 203 -48 95 -133 157 -231 169 l-49 6
0 102 c0 89 -3 106 -23 136 -22 33 -96 79 -127 79 -8 -1 -32 -7 -53 -14z"/>
<path d="M11655 2175 c-133 -47 -138 -230 -8 -287 62 -27 114 -17 166 32 37
34 41 43 45 96 3 50 0 65 -20 94 -23 34 -97 80 -128 80 -8 -1 -33 -7 -55 -15z"/>
<path d="M3214 1860 c-33 -13 -82 -77 -90 -115 -3 -20 -5 -87 -2 -149 4 -98 8
-121 32 -169 34 -70 100 -130 174 -157 49 -19 74 -21 189 -18 151 3 171 12
211 89 28 54 23 107 -15 157 -37 49 -77 62 -188 62 l-95 0 0 103 c0 115 -14
151 -72 187 -34 21 -105 26 -144 10z"/>
<path d="M7248 1845 c-67 -45 -87 -152 -40 -214 50 -67 123 -87 194 -52 59 29
81 63 86 131 2 42 -2 62 -17 88 -47 74 -151 96 -223 47z"/>
<path d="M11954 1860 c-35 -14 -82 -76 -89 -119 -13 -79 49 -165 130 -178 45
-7 118 20 145 54 62 79 38 192 -52 239 -29 15 -101 18 -134 4z"/>
<path d="M11318 1539 c-59 -30 -78 -79 -78 -194 l0 -95 -93 0 c-78 0 -101 -4
-137 -23 -104 -55 -108 -206 -8 -267 27 -16 51 -20 136 -20 l102 0 0 -30 c0
-46 37 -133 75 -178 22 -25 63 -54 103 -74 l67 -33 290 0 c264 0 293 2 320 18
109 66 104 222 -9 276 -39 20 -60 21 -289 21 l-247 0 0 253 c0 226 -2 256 -19
287 -38 72 -137 100 -213 59z"/>
<path d="M3975 1236 c-67 -21 -100 -43 -148 -96 -59 -66 -80 -129 -75 -223 5
-90 35 -153 101 -213 181 -163 481 -53 513 188 l7 48 101 0 c83 0 107 4 134
20 52 32 74 75 70 140 -5 67 -27 102 -84 130 -37 19 -59 20 -310 19 -187 0
-281 -4 -309 -13z"/>
<path d="M6644 1232 c-108 -51 -114 -208 -12 -273 26 -15 46 -19 88 -17 68 5
102 27 131 86 65 132 -72 266 -207 204z"/>
<path d="M7584 1236 c-17 -8 -44 -31 -60 -52 l-29 -37 -3 -186 c-4 -207 2
-244 49 -290 87 -88 232 -41 260 83 7 32 10 115 8 216 -5 192 -14 220 -89 258
-50 25 -91 27 -136 8z"/>
<path d="M8525 1236 c-37 -16 -83 -68 -91 -101 -3 -14 -4 -82 -3 -152 4 -116
7 -133 32 -185 56 -114 151 -167 311 -175 132 -7 192 6 237 53 32 33 34 39 34
104 0 65 -2 71 -35 105 -42 43 -81 55 -187 55 l-83 0 0 99 c0 107 -13 141 -71
184 -34 25 -105 31 -144 13z"/>
<path d="M9142 1233 c-99 -48 -118 -175 -38 -253 29 -27 45 -34 89 -38 36 -3
63 1 83 11 119 62 119 224 0 278 -50 23 -91 24 -134 2z"/>
<path d="M3214 921 c-77 -35 -110 -116 -79 -196 40 -107 175 -133 256 -49 32
33 34 39 34 104 0 65 -2 71 -35 105 -31 32 -82 55 -120 55 -8 0 -33 -9 -56
-19z"/>
<path d="M4773 920 c-99 -44 -120 -171 -42 -250 62 -62 156 -60 218 4 75 78
54 198 -43 245 -52 26 -79 26 -133 1z"/>
<path d="M5732 933 c-12 -3 -40 -21 -61 -41 -90 -86 -53 -229 68 -262 28 -7
148 -10 374 -8 311 3 334 4 365 23 107 64 100 220 -12 274 -40 20 -57 21 -377
20 -184 -1 -344 -4 -357 -6z"/>
<path d="M10703 919 c-98 -48 -118 -167 -41 -246 61 -63 155 -64 217 -3 78 79
57 206 -42 250 -54 25 -82 25 -134 -1z"/>
</g>
</svg>
